<svg width="17" height="18" viewBox="0 0 17 18" fill="none" xmlns="http://www.w3.org/2000/svg">
<path fill-rule="evenodd" clip-rule="evenodd" d="M13.2509 3.80711C13.5275 4.08373 13.5275 4.53222 13.2509 4.80884L4.75086 13.3088C4.47424 13.5855 4.02574 13.5855 3.74912 13.3088C3.4725 13.0322 3.4725 12.5837 3.74912 12.3071L12.2491 3.80711C12.5257 3.53048 12.9742 3.53048 13.2509 3.80711Z" fill="white"/>
<path fill-rule="evenodd" clip-rule="evenodd" d="M3.74912 3.80711C4.02574 3.53048 4.47424 3.53048 4.75086 3.80711L13.2509 12.3071C13.5275 12.5837 13.5275 13.0322 13.2509 13.3088C12.9742 13.5855 12.5257 13.5855 12.2491 13.3088L3.74912 4.80884C3.4725 4.53222 3.4725 4.08373 3.74912 3.80711Z" fill="white"/>
</svg>
