<svg width="10" height="9" viewBox="0 0 10 9" fill="none" xmlns="http://www.w3.org/2000/svg">
<path d="M8.38313 1.61885C8.18765 1.42266 7.95556 1.26702 7.70011 1.16084C7.44466 1.05465 7.17086 1 6.89435 1C6.61784 1 6.34404 1.05465 6.08859 1.16084C5.83315 1.26702 5.60105 1.42266 5.40558 1.61885L4.9999 2.02583L4.59422 1.61885C4.19937 1.22274 3.66384 1.00021 3.10544 1.00021C2.54705 1.00021 2.01152 1.22274 1.61667 1.61885C1.22182 2.01496 1 2.55221 1 3.11239C1 3.67258 1.22182 4.20982 1.61667 4.60594L2.02235 5.01292L4.9999 8L7.97744 5.01292L8.38313 4.60594C8.57869 4.40983 8.73383 4.177 8.83968 3.92073C8.94552 3.66446 9 3.38979 9 3.11239C9 2.835 8.94552 2.56032 8.83968 2.30405C8.73383 2.04779 8.57869 1.81495 8.38313 1.61885Z" stroke="white" stroke-width="0.5" stroke-linecap="round" stroke-linejoin="round"/>
</svg>
