<svg width="61" height="57" viewBox="0 0 61 57" fill="none" xmlns="http://www.w3.org/2000/svg">
<g clip-path="url(#clip0_514_244)">
<path fill-rule="evenodd" clip-rule="evenodd" d="M22.8748 51.8571C22.5138 51.8571 22.2212 52.145 22.2212 52.5C22.2212 52.855 22.5138 53.1429 22.8748 53.1429C23.2358 53.1429 23.5284 52.855 23.5284 52.5C23.5284 52.145 23.2358 51.8571 22.8748 51.8571ZM18.2998 52.5C18.2998 50.0147 20.3481 48 22.8748 48C25.4015 48 27.4498 50.0147 27.4498 52.5C27.4498 54.9853 25.4015 57 22.8748 57C20.3481 57 18.2998 54.9853 18.2998 52.5Z" fill="white"/>
<path fill-rule="evenodd" clip-rule="evenodd" d="M51.3416 51.8571C50.9806 51.8571 50.688 52.145 50.688 52.5C50.688 52.855 50.9806 53.1429 51.3416 53.1429C51.7026 53.1429 51.9952 52.855 51.9952 52.5C51.9952 52.145 51.7026 51.8571 51.3416 51.8571ZM46.7666 52.5C46.7666 50.0147 48.8149 48 51.3416 48C53.8683 48 55.9166 50.0147 55.9166 52.5C55.9166 54.9853 53.8683 57 51.3416 57C48.8149 57 46.7666 54.9853 46.7666 52.5Z" fill="white"/>
<path d="M0 1.90905C0 0.85471 0.871616 0 1.94681 0H12.3298C13.2577 0 14.0566 0.642176 14.2387 1.53438L16.5232 12.727L17.3025 16.5451L17.3164 16.6129L21.1959 35.62C21.3442 36.3524 21.7506 37.0104 22.3438 37.4786C22.9369 37.9469 23.6792 38.1956 24.4406 38.1813L24.4779 38.181H49.7085L49.7458 38.1813C50.5072 38.1956 51.2494 37.9469 51.8426 37.4786C52.4341 37.0117 52.8398 36.3561 52.9892 35.6262L52.9905 35.62L56.7 16.5451C56.9581 15.4932 57.5385 13.327 57.7954 13.0776C58.0523 12.8283 58.741 12.74 59.0532 12.727C59.6334 12.727 60.1833 12.9808 60.5532 13.4191C60.923 13.8575 61.0742 14.4348 60.9655 14.9937L56.8095 36.3639C56.4832 37.9752 55.5892 39.4226 54.2842 40.4528C52.9844 41.4788 51.3592 42.0258 49.6913 41.9991H24.4951C22.8271 42.0258 21.202 41.4788 19.9022 40.4528C18.5978 39.4231 17.7041 37.9765 17.3773 36.3661L13.0373 15.1026C13.0221 15.0434 13.0098 14.9832 13.0004 14.922L10.734 3.8181H1.94681C0.871616 3.8181 0 2.96339 0 1.90905Z" fill="white"/>
<g clip-path="url(#clip1_514_244)">
<path fill-rule="evenodd" clip-rule="evenodd" d="M37.0001 13.5909C33.4604 13.5909 30.591 16.4603 30.591 20C30.591 23.5396 33.4604 26.4091 37.0001 26.4091C40.5397 26.4091 43.4092 23.5396 43.4092 20C43.4092 16.4603 40.5397 13.5909 37.0001 13.5909ZM28.4092 20C28.4092 15.2553 32.2555 11.4091 37.0001 11.4091C41.7447 11.4091 45.591 15.2553 45.591 20C45.591 24.7446 41.7447 28.5909 37.0001 28.5909C32.2555 28.5909 28.4092 24.7446 28.4092 20Z" fill="white"/>
<path fill-rule="evenodd" clip-rule="evenodd" d="M40.0215 16.9786C40.4475 17.4046 40.4475 18.0953 40.0215 18.5214L35.5215 23.0214C35.0955 23.4474 34.4047 23.4474 33.9787 23.0214C33.5527 22.5953 33.5527 21.9046 33.9787 21.4786L38.4787 16.9786C38.9047 16.5526 39.5955 16.5526 40.0215 16.9786Z" fill="white"/>
<path fill-rule="evenodd" clip-rule="evenodd" d="M33.9787 16.9786C34.4047 16.5526 35.0955 16.5526 35.5215 16.9786L40.0215 21.4786C40.4475 21.9046 40.4475 22.5953 40.0215 23.0214C39.5955 23.4474 38.9047 23.4474 38.4787 23.0214L33.9787 18.5214C33.5527 18.0953 33.5527 17.4046 33.9787 16.9786Z" fill="white"/>
</g>
</g>
<defs>
<clipPath id="clip0_514_244">
<rect width="61" height="57" fill="white"/>
</clipPath>
<clipPath id="clip1_514_244">
<rect width="18" height="18" fill="white" transform="translate(28 11)"/>
</clipPath>
</defs>
</svg>
