<svg width="30" height="32" viewBox="0 0 30 32" fill="none" xmlns="http://www.w3.org/2000/svg">
<path d="M4.60002 8.13635L1.15002 12.6818V28.5909C1.15002 29.1937 1.39235 29.7717 1.82368 30.198C2.25501 30.6242 2.84003 30.8636 3.45002 30.8636H19.55C20.16 30.8636 20.745 30.6242 21.1764 30.198C21.6077 29.7717 21.85 29.1937 21.85 28.5909V12.6818L18.4 8.13635H4.60002Z" stroke="white" stroke-width="1.5" stroke-linecap="round" stroke-linejoin="round"/>
<path d="M1.15002 12.6818H21.85" stroke="white" stroke-width="1.5" stroke-linecap="round" stroke-linejoin="round"/>
<path d="M16.1 17.2273C16.1 18.4328 15.6154 19.5889 14.7527 20.4414C13.89 21.2938 12.72 21.7727 11.5 21.7727C10.28 21.7727 9.11 21.2938 8.24733 20.4414C7.38467 19.5889 6.90002 18.4328 6.90002 17.2273" stroke="white" stroke-width="1.5" stroke-linecap="round" stroke-linejoin="round"/>
</svg>
