<svg width="14" height="14" viewBox="0 0 14 14" fill="none" xmlns="http://www.w3.org/2000/svg">
<g clip-path="url(#clip0_345_991)">
<path fill-rule="evenodd" clip-rule="evenodd" d="M1.3125 3.49585C1.3125 3.25423 1.50838 3.05835 1.75 3.05835H12.25C12.4916 3.05835 12.6875 3.25423 12.6875 3.49585C12.6875 3.73747 12.4916 3.93335 12.25 3.93335H1.75C1.50838 3.93335 1.3125 3.73747 1.3125 3.49585Z" fill="white"/>
<path fill-rule="evenodd" clip-rule="evenodd" d="M5.83335 1.59998C5.63997 1.59998 5.4545 1.6768 5.31776 1.81354C5.18101 1.95029 5.10419 2.13576 5.10419 2.32914V3.49581C5.10419 3.73743 4.90831 3.93331 4.66669 3.93331C4.42506 3.93331 4.22919 3.73743 4.22919 3.49581V2.32914C4.22919 1.90369 4.3982 1.49566 4.69904 1.19483C4.99988 0.893985 5.4079 0.724976 5.83335 0.724976H8.16669C8.59214 0.724976 9.00016 0.893985 9.301 1.19483C9.60184 1.49566 9.77085 1.90369 9.77085 2.32914V3.49581C9.77085 3.73743 9.57498 3.93331 9.33335 3.93331C9.09173 3.93331 8.89585 3.73743 8.89585 3.49581V2.32914C8.89585 2.13576 8.81903 1.95029 8.68229 1.81354C8.54554 1.6768 8.36007 1.59998 8.16669 1.59998H5.83335ZM2.91669 3.05831C3.15831 3.05831 3.35419 3.25418 3.35419 3.49581V11.6625C3.35419 11.8559 3.43101 12.0413 3.56775 12.1781C3.7045 12.3148 3.88997 12.3916 4.08335 12.3916H9.91669C10.1101 12.3916 10.2955 12.3148 10.4323 12.1781C10.569 12.0413 10.6459 11.8559 10.6459 11.6625V3.49581C10.6459 3.25418 10.8417 3.05831 11.0834 3.05831C11.325 3.05831 11.5209 3.25418 11.5209 3.49581V11.6625C11.5209 12.0879 11.3518 12.496 11.051 12.7968C10.7502 13.0976 10.3421 13.2666 9.91669 13.2666H4.08335C3.6579 13.2666 3.24988 13.0976 2.94904 12.7968C2.6482 12.496 2.47919 12.0879 2.47919 11.6625V3.49581C2.47919 3.25418 2.67506 3.05831 2.91669 3.05831Z" fill="white"/>
<path fill-rule="evenodd" clip-rule="evenodd" d="M5.83331 5.97498C6.07494 5.97498 6.27081 6.17085 6.27081 6.41248V9.91248C6.27081 10.1541 6.07494 10.35 5.83331 10.35C5.59169 10.35 5.39581 10.1541 5.39581 9.91248V6.41248C5.39581 6.17085 5.59169 5.97498 5.83331 5.97498Z" fill="white"/>
<path fill-rule="evenodd" clip-rule="evenodd" d="M8.16669 5.97498C8.40831 5.97498 8.60419 6.17085 8.60419 6.41248V9.91248C8.60419 10.1541 8.40831 10.35 8.16669 10.35C7.92506 10.35 7.72919 10.1541 7.72919 9.91248V6.41248C7.72919 6.17085 7.92506 5.97498 8.16669 5.97498Z" fill="white"/>
</g>
<defs>
<clipPath id="clip0_345_991">
<rect width="14" height="14" fill="white" transform="translate(0 -0.00415039)"/>
</clipPath>
</defs>
</svg>
