<svg width="30" height="30" viewBox="0 0 30 30" fill="none" xmlns="http://www.w3.org/2000/svg">
<path d="M23.6636 7.05177C22.0701 6.32064 20.3614 5.78198 18.5749 5.47346C18.5424 5.46751 18.5099 5.48239 18.4931 5.51215C18.2733 5.903 18.0299 6.41289 17.8595 6.81367C15.9379 6.52599 14.0262 6.52599 12.1441 6.81367C11.9736 6.40398 11.7213 5.903 11.5006 5.51215C11.4838 5.48338 11.4513 5.4685 11.4188 5.47346C9.63324 5.78099 7.92454 6.31965 6.33014 7.05177C6.31634 7.05772 6.30451 7.06765 6.29666 7.08053C3.05562 11.9226 2.16776 16.6456 2.60331 21.3101C2.60528 21.3329 2.61809 21.3547 2.63583 21.3686C4.77418 22.9389 6.84553 23.8923 8.87842 24.5242C8.91095 24.5341 8.94542 24.5222 8.96613 24.4954C9.44701 23.8387 9.87567 23.1463 10.2432 22.4181C10.2649 22.3755 10.2442 22.3249 10.1999 22.308C9.51993 22.0501 8.8725 21.7356 8.24972 21.3785C8.20046 21.3498 8.19651 21.2793 8.24183 21.2456C8.37289 21.1474 8.50398 21.0452 8.62912 20.942C8.65176 20.9232 8.68331 20.9192 8.70993 20.9311C12.8013 22.7991 17.2308 22.7991 21.2739 20.9311C21.3005 20.9182 21.3321 20.9222 21.3557 20.941C21.4809 21.0442 21.6119 21.1474 21.744 21.2456C21.7893 21.2793 21.7863 21.3498 21.7371 21.3785C21.1143 21.7426 20.4669 22.0501 19.7859 22.307C19.7416 22.3239 19.7219 22.3755 19.7436 22.4181C20.119 23.1453 20.5477 23.8377 21.0197 24.4944C21.0394 24.5222 21.0749 24.5341 21.1074 24.5242C23.1501 23.8923 25.2215 22.9389 27.3598 21.3686C27.3786 21.3547 27.3904 21.3339 27.3924 21.3111C27.9136 15.9184 26.5193 11.2341 23.6961 7.08152C23.6892 7.06765 23.6774 7.05772 23.6636 7.05177ZM10.8542 18.4699C9.62239 18.4699 8.60743 17.339 8.60743 15.9502C8.60743 14.5613 9.60271 13.4305 10.8542 13.4305C12.1155 13.4305 13.1206 14.5713 13.1009 15.9502C13.1009 17.339 12.1056 18.4699 10.8542 18.4699ZM19.1612 18.4699C17.9294 18.4699 16.9145 17.339 16.9145 15.9502C16.9145 14.5613 17.9097 13.4305 19.1612 13.4305C20.4225 13.4305 21.4276 14.5713 21.408 15.9502C21.408 17.339 20.4225 18.4699 19.1612 18.4699Z" fill="#5B9DFF"/>
</svg>
