<svg width="30" height="30" viewBox="0 0 30 30" fill="none" xmlns="http://www.w3.org/2000/svg">
<path fill-rule="evenodd" clip-rule="evenodd" d="M15.0103 2.70825C8.09245 2.70825 2.5 8.34193 2.5 15.3115C2.5 20.8827 6.08327 25.5986 11.0542 27.2677C11.6757 27.3932 11.9034 26.9966 11.9034 26.6629C11.9034 26.3707 11.8829 25.3692 11.8829 24.3257C8.40281 25.077 7.67812 22.8233 7.67812 22.8233C7.11885 21.3626 6.29018 20.9872 6.29018 20.9872C5.15116 20.2151 6.37315 20.2151 6.37315 20.2151C7.63663 20.2986 8.29961 21.5088 8.29961 21.5088C9.4179 23.4284 11.2199 22.886 11.9449 22.5521C12.0483 21.7383 12.3799 21.1749 12.732 20.862C9.95642 20.5698 7.03613 19.4848 7.03613 14.6437C7.03613 13.2665 7.53292 12.1398 8.3201 11.2635C8.1959 10.9506 7.76083 9.65662 8.44455 7.92478C8.44455 7.92478 9.50086 7.59086 11.8826 9.21847C12.9023 8.94259 13.954 8.80225 15.0103 8.80107C16.0667 8.80107 17.1435 8.94729 18.1378 9.21847C20.5198 7.59086 21.5761 7.92478 21.5761 7.92478C22.2599 9.65662 21.8245 10.9506 21.7003 11.2635C22.5083 12.1398 22.9846 13.2665 22.9846 14.6437C22.9846 19.4848 20.0643 20.5488 17.2679 20.862C17.7237 21.2584 18.1171 22.0095 18.1171 23.1989C18.1171 24.8891 18.0966 26.2455 18.0966 26.6626C18.0966 26.9966 18.3245 27.3932 18.9457 27.268C23.9167 25.5984 27.4999 20.8827 27.4999 15.3115C27.5204 8.34193 21.9075 2.70825 15.0103 2.70825Z" fill="#5B9DFF"/>
</svg>
