<svg width="30" height="30" viewBox="0 0 30 30" fill="none" xmlns="http://www.w3.org/2000/svg">
<path fill-rule="evenodd" clip-rule="evenodd" d="M27.5 15C27.5 21.9036 21.9036 27.5 15 27.5C8.09644 27.5 2.5 21.9036 2.5 15C2.5 8.09644 8.09644 2.5 15 2.5C21.9036 2.5 27.5 8.09644 27.5 15ZM15.4479 11.7281C14.2321 12.2338 11.8022 13.2804 8.1582 14.8681C7.56647 15.1034 7.2565 15.3336 7.22828 15.5587C7.18059 15.9391 7.65697 16.0889 8.30568 16.2929C8.39392 16.3206 8.48535 16.3494 8.57908 16.3798C9.21731 16.5873 10.0758 16.83 10.5222 16.8396C10.927 16.8484 11.3789 16.6815 11.8777 16.3389C15.2824 14.0406 17.04 12.879 17.1503 12.8539C17.2281 12.8363 17.336 12.8141 17.4091 12.879C17.4822 12.944 17.475 13.067 17.4673 13.1C17.4201 13.3012 15.5501 15.0397 14.5824 15.9394C14.2807 16.2198 14.0667 16.4188 14.023 16.4642C13.925 16.566 13.8251 16.6623 13.7291 16.7548C13.1362 17.3264 12.6916 17.755 13.7537 18.455C14.2642 18.7914 14.6726 19.0695 15.0801 19.347C15.5251 19.6501 15.969 19.9524 16.5433 20.3288C16.6896 20.4248 16.8294 20.5244 16.9655 20.6214C17.4834 20.9906 17.9487 21.3223 18.5235 21.2694C18.8575 21.2387 19.2025 20.9246 19.3778 19.9879C19.7919 17.7741 20.6058 12.9776 20.794 11.001C20.8104 10.8279 20.7897 10.6062 20.7731 10.5089C20.7564 10.4117 20.7216 10.273 20.5951 10.1704C20.4454 10.0489 20.2142 10.0233 20.1108 10.0251C19.6406 10.0334 18.9193 10.2842 15.4479 11.7281Z" fill="#5B9DFF"/>
</svg>
