<svg width="30" height="30" viewBox="0 0 30 30" fill="none" xmlns="http://www.w3.org/2000/svg">
<path d="M24.9406 9.90016C24.9558 10.1206 24.9558 10.3409 24.9558 10.5634C24.9558 17.3407 19.7964 25.1571 10.3621 25.1571V25.1531C7.57516 25.1571 4.84613 24.3588 2.5 22.8536C2.90524 22.9024 3.31251 22.9268 3.7208 22.9278C6.03037 22.9298 8.27392 22.1549 10.0909 20.7279C7.8961 20.6863 5.97146 19.2552 5.29911 17.1661C6.06795 17.3143 6.86015 17.2839 7.61477 17.0777C5.22192 16.5942 3.50041 14.4919 3.50041 12.0503C3.50041 12.0279 3.50041 12.0066 3.50041 11.9853C4.21339 12.3824 5.01168 12.6028 5.82826 12.6272C3.57455 11.121 2.87985 8.12279 4.24081 5.77869C6.84491 8.98304 10.6871 10.931 14.8116 11.1372C14.3982 9.35578 14.9629 7.48903 16.2955 6.23674C18.3613 4.29484 21.6103 4.39437 23.5522 6.45917C24.7009 6.23268 25.8018 5.81119 26.8094 5.21399C26.4265 6.40128 25.6251 7.40981 24.5546 8.05068C25.5713 7.93083 26.5646 7.65864 27.5 7.24324C26.8114 8.27513 25.944 9.17398 24.9406 9.90016Z" fill="#5B9DFF"/>
</svg>
