<svg width="36" height="36" viewBox="0 0 36 36" fill="none" xmlns="http://www.w3.org/2000/svg">
<path fill-rule="evenodd" clip-rule="evenodd" d="M29.7734 20.3326C29.8374 20.0077 29.8883 19.6781 29.9255 19.3443C29.9747 18.903 30 18.4544 30 18C30 17.5456 29.9747 17.097 29.9255 16.6557C29.8883 16.3219 29.8374 15.9923 29.7734 15.6673C29.7085 15.3376 29.63 15.0128 29.5387 14.6934C29.5929 14.6828 29.648 14.6743 29.704 14.668C30.8017 14.5457 31.7909 15.3364 31.9132 16.4342C31.9706 16.9489 32 17.4714 32 18C32 18.5286 31.9706 19.0511 31.9132 19.5658C31.7909 20.6636 30.8017 21.4543 29.704 21.332C29.648 21.3257 29.5929 21.3172 29.5387 21.3066C29.63 20.9872 29.7085 20.6624 29.7734 20.3326ZM21.3397 29.5291C21.3596 29.5809 21.3818 29.6323 21.4063 29.6832C21.8863 30.6781 23.0818 31.0955 24.0767 30.6155C25.98 29.6973 27.6418 28.3624 28.9453 26.7301C29.6345 25.8669 29.4935 24.6084 28.6304 23.9192C28.5866 23.8843 28.5419 23.8515 28.4962 23.8208C28.3336 24.1134 28.1591 24.3985 27.9734 24.6754C27.7874 24.9527 27.5902 25.2218 27.3824 25.4821C26.2639 26.8828 24.8384 28.0275 23.2077 28.8142C22.9083 28.9586 22.6021 29.0909 22.2896 29.2106C21.9789 29.3295 21.6621 29.4359 21.3397 29.5291ZM14.6934 29.5387C14.6828 29.5929 14.6743 29.648 14.668 29.704C14.5457 30.8017 15.3364 31.7909 16.4342 31.9132C16.9489 31.9706 17.4714 32 18 32C18.5286 32 19.0511 31.9706 19.5658 31.9132C20.6636 31.7909 21.4543 30.8017 21.332 29.704C21.3257 29.648 21.3172 29.5929 21.3066 29.5387C20.9872 29.63 20.6624 29.7085 20.3327 29.7734C20.0077 29.8374 19.6781 29.8883 19.3443 29.9255C18.903 29.9747 18.4544 30 18 30C17.5456 30 17.097 29.9747 16.6557 29.9255C16.3219 29.8883 15.9923 29.8374 15.6673 29.7734C15.3376 29.7085 15.0128 29.63 14.6934 29.5387ZM6.47086 21.3397C6.41906 21.3596 6.36766 21.3818 6.31678 21.4063C5.32194 21.8863 4.90453 23.0818 5.38449 24.0767C6.30271 25.98 7.63759 27.6418 9.26995 28.9453C10.1331 29.6345 11.3916 29.4935 12.0808 28.6304C12.1157 28.5866 12.1485 28.5419 12.1792 28.4962C11.8866 28.3336 11.6015 28.1591 11.3246 27.9734C11.0473 27.7874 10.7782 27.5902 10.5179 27.3824C9.11723 26.2639 7.97253 24.8384 7.18582 23.2077C7.04141 22.9083 6.90906 22.6021 6.78941 22.2896C6.67048 21.9789 6.56409 21.6621 6.47086 21.3397ZM6.46134 14.6934C6.40709 14.6828 6.35195 14.6743 6.29602 14.668C5.19825 14.5457 4.20913 15.3364 4.08676 16.4342C4.02939 16.9489 4 17.4714 4 18C4 18.5286 4.02939 19.0511 4.08676 19.5658C4.20913 20.6636 5.19825 21.4543 6.29602 21.332C6.35195 21.3257 6.40709 21.3172 6.46134 21.3066C6.36998 20.9872 6.29153 20.6624 6.22657 20.3327C6.16256 20.0077 6.11166 19.6781 6.07445 19.3443C6.02526 18.903 6 18.4544 6 18C6 17.5456 6.02526 17.097 6.07445 16.6557C6.11166 16.3219 6.16256 15.9923 6.22657 15.6673C6.29153 15.3376 6.36998 15.0128 6.46134 14.6934ZM14.6603 6.47086C14.6404 6.41906 14.6182 6.36766 14.5937 6.31678C14.1137 5.32194 12.9182 4.90453 11.9233 5.38449C10.02 6.30271 8.35818 7.63759 7.05474 9.26995C6.3655 10.1331 6.50649 11.3916 7.36964 12.0808C7.41338 12.1157 7.45813 12.1485 7.50378 12.1792C7.66639 11.8866 7.84087 11.6015 8.02659 11.3246C8.21256 11.0473 8.40978 10.7782 8.61761 10.5179C9.73607 9.11723 11.1616 7.97253 12.7923 7.18582C13.0917 7.04141 13.3979 6.90906 13.7104 6.78941C14.0211 6.67048 14.3379 6.56409 14.6603 6.47086ZM21.3066 6.46134C21.3172 6.40709 21.3257 6.35195 21.332 6.29602C21.4543 5.19825 20.6636 4.20913 19.5658 4.08676C19.0511 4.02939 18.5286 4 18 4C17.4714 4 16.9489 4.02939 16.4342 4.08676C15.3364 4.20913 14.5457 5.19825 14.668 6.29602C14.6743 6.35195 14.6828 6.40709 14.6934 6.46134C15.0128 6.36998 15.3376 6.29153 15.6673 6.22657C15.9923 6.16256 16.3219 6.11166 16.6557 6.07445C17.097 6.02526 17.5456 6 18 6C18.4544 6 18.903 6.02526 19.3443 6.07445C19.6781 6.11166 20.0077 6.16256 20.3326 6.22657C20.6624 6.29153 20.9872 6.36998 21.3066 6.46134ZM23.8208 7.50378C23.8515 7.45813 23.8843 7.41338 23.9192 7.36964C24.6084 6.50649 25.8669 6.3655 26.7301 7.05474C28.3624 8.35818 29.6973 10.02 30.6155 11.9233C31.0955 12.9182 30.6781 14.1137 29.6832 14.5937C29.6323 14.6182 29.5809 14.6404 29.5291 14.6603C29.4359 14.3379 29.3295 14.0211 29.2106 13.7104C29.0909 13.3979 28.9586 13.0917 28.8142 12.7923C28.0275 11.1616 26.8828 9.73607 25.4821 8.61761C25.2218 8.40978 24.9527 8.21256 24.6754 8.02659C24.3985 7.84087 24.1134 7.66639 23.8208 7.50378Z" fill="white"/>
<path fill-rule="evenodd" clip-rule="evenodd" d="M33.7589 20.7823C33.8162 20.4556 33.8636 20.1255 33.9007 19.7924C33.9663 19.204 34 18.6059 34 18C34 17.3941 33.9663 16.796 33.9007 16.2076C33.8636 15.8745 33.8162 15.5444 33.7589 15.2177C33.701 14.8874 33.633 14.5606 33.5551 14.2377C33.596 14.2305 33.6374 14.2246 33.6792 14.2199C34.7769 14.0976 35.766 14.8883 35.8884 15.9861C35.9622 16.6479 36 17.3199 36 18C36 18.6801 35.9622 19.3521 35.8884 20.0139C35.766 21.1117 34.7769 21.9024 33.6792 21.7801C33.6374 21.7754 33.596 21.7695 33.5551 21.7623C33.633 21.4394 33.701 21.1126 33.7589 20.7823ZM23.0911 33.173C23.1068 33.2116 23.1239 33.2499 23.1422 33.2879C23.6222 34.2828 24.8177 34.7002 25.8126 34.2202C28.2594 33.0398 30.3965 31.3233 32.0727 29.2241C32.762 28.3609 32.621 27.1025 31.7578 26.4132C31.7251 26.3871 31.6919 26.3622 31.6581 26.3385C31.4837 26.6235 31.3006 26.9027 31.1092 27.1756C30.9176 27.4488 30.7177 27.7158 30.5099 27.9761C29.0186 29.8437 27.1178 31.37 24.9435 32.4189C24.644 32.5634 24.3392 32.6989 24.0297 32.8249C23.7215 32.9504 23.4085 33.0665 23.0911 33.173ZM14.2377 33.5551C14.2305 33.596 14.2246 33.6374 14.2199 33.6792C14.0976 34.7769 14.8883 35.766 15.9861 35.8884C16.6479 35.9622 17.3199 36 18 36C18.6801 36 19.3521 35.9622 20.0139 35.8884C21.1117 35.766 21.9024 34.7769 21.7801 33.6792C21.7754 33.6374 21.7695 33.596 21.7623 33.5551C21.4394 33.633 21.1126 33.701 20.7823 33.7589C20.4556 33.8162 20.1255 33.8636 19.7924 33.9007C19.204 33.9663 18.6059 34 18 34C17.3941 34 16.796 33.9663 16.2076 33.9007C15.8745 33.8636 15.5444 33.8162 15.2177 33.7589C14.8874 33.701 14.5606 33.633 14.2377 33.5551ZM2.827 23.0911C2.78842 23.1068 2.75009 23.1239 2.71206 23.1422C1.71721 23.6222 1.29981 24.8177 1.77976 25.8126C2.96022 28.2594 4.67667 30.3965 6.77592 32.0727C7.63907 32.762 8.89753 32.621 9.58676 31.7578C9.61287 31.7251 9.63779 31.6919 9.66152 31.6581C9.37647 31.4837 9.0973 31.3006 8.82438 31.1092C8.55116 30.9176 8.28421 30.7177 8.02389 30.5099C6.1563 29.0186 4.63004 27.1178 3.58109 24.9435C3.43657 24.644 3.30112 24.3392 3.17508 24.0297C3.0496 23.7215 2.93346 23.4085 2.827 23.0911ZM2.44485 14.2377C2.40398 14.2305 2.36263 14.2246 2.32084 14.2199C1.22307 14.0976 0.23395 14.8883 0.111581 15.9861C0.0378063 16.6479 0 17.3199 0 18C0 18.6801 0.0378064 19.3521 0.111581 20.0139C0.23395 21.1117 1.22307 21.9024 2.32084 21.7801C2.36263 21.7754 2.40398 21.7695 2.44485 21.7623C2.36701 21.4394 2.29897 21.1126 2.24105 20.7823C2.18378 20.4556 2.13641 20.1255 2.09927 19.7924C2.03368 19.204 2 18.6059 2 18C2 17.3941 2.03368 16.796 2.09927 16.2076C2.13641 15.8745 2.18378 15.5444 2.24105 15.2177C2.29897 14.8874 2.36701 14.5606 2.44485 14.2377ZM12.9089 2.827C12.8932 2.78842 12.8761 2.75009 12.8578 2.71206C12.3778 1.71721 11.1823 1.29981 10.1874 1.77976C7.74058 2.96022 5.60354 4.67667 3.92727 6.77592C3.23804 7.63907 3.37902 8.89753 4.24218 9.58676C4.27487 9.61287 4.30814 9.63779 4.34192 9.66152C4.51632 9.37647 4.6994 9.0973 4.89078 8.82438C5.08237 8.55116 5.28228 8.28421 5.49014 8.02389C6.98143 6.1563 8.88219 4.63004 11.0565 3.58109C11.356 3.43657 11.6608 3.30112 11.9703 3.17508C12.2785 3.0496 12.5915 2.93346 12.9089 2.827ZM21.7623 2.44485C21.7695 2.40398 21.7754 2.36263 21.7801 2.32084C21.9024 1.22307 21.1117 0.23395 20.0139 0.111581C19.3521 0.0378063 18.6801 0 18 0C17.3199 0 16.6479 0.0378064 15.9861 0.111581C14.8883 0.23395 14.0976 1.22307 14.2199 2.32084C14.2246 2.36263 14.2305 2.40398 14.2377 2.44485C14.5606 2.36701 14.8874 2.29897 15.2177 2.24105C15.5444 2.18378 15.8745 2.13641 16.2076 2.09927C16.796 2.03368 17.3941 2 18 2C18.6059 2 19.204 2.03368 19.7924 2.09927C20.1255 2.13641 20.4556 2.18378 20.7823 2.24105C21.1126 2.29897 21.4394 2.36701 21.7623 2.44485ZM33.173 12.9089C33.2116 12.8932 33.2499 12.8761 33.2879 12.8578C34.2828 12.3778 34.7002 11.1823 34.2202 10.1874C33.0398 7.74058 31.3233 5.60354 29.2241 3.92727C28.3609 3.23804 27.1025 3.37902 26.4132 4.24218C26.3871 4.27487 26.3622 4.30814 26.3385 4.34192C26.6235 4.51632 26.9027 4.6994 27.1756 4.89078C27.4488 5.08237 27.7158 5.28228 27.9761 5.49014C29.8437 6.98143 31.37 8.8822 32.4189 11.0565C32.5634 11.356 32.6989 11.6608 32.8249 11.9703C32.9504 12.2785 33.0665 12.5915 33.173 12.9089Z" fill="#5B9DFF"/>
</svg>
