<svg width="934" height="934" viewBox="0 0 934 934" fill="none" xmlns="http://www.w3.org/2000/svg">
<path fill-rule="evenodd" clip-rule="evenodd" d="M807.033 510.361C807.242 508.709 807.439 507.054 807.623 505.396C809.029 492.791 809.75 479.98 809.75 467C809.75 454.02 809.029 441.209 807.623 428.604C807.439 426.946 807.242 425.291 807.033 423.639C806.824 421.983 806.603 420.331 806.371 418.683C806.419 418.677 806.467 418.671 806.516 418.666C812.004 418.054 816.95 422.008 817.562 427.496C819.008 440.468 819.75 453.649 819.75 467C819.75 480.351 819.008 493.532 817.562 506.504C816.95 511.992 812.004 515.946 806.516 515.334C806.467 515.329 806.419 515.323 806.371 515.317C806.603 513.669 806.824 512.017 807.033 510.361ZM606.674 780.093C606.695 780.137 606.716 780.181 606.737 780.225C609.137 785.2 615.115 787.287 620.089 784.887C668.029 761.759 709.928 728.112 742.799 686.947C746.245 682.631 745.54 676.339 741.224 672.893C741.186 672.862 741.148 672.832 741.11 672.803C740.108 674.135 739.097 675.46 738.076 676.777C737.055 678.095 736.024 679.405 734.985 680.707C703.038 720.714 662.32 753.41 615.744 775.88C614.243 776.604 612.737 777.317 611.224 778.02C609.714 778.721 608.197 779.413 606.674 780.093ZM418.683 806.371C418.677 806.419 418.671 806.467 418.666 806.516C418.054 812.004 422.008 816.95 427.496 817.562C440.468 819.008 453.649 819.75 467 819.75C480.351 819.75 493.532 819.008 506.504 817.562C511.992 816.95 515.946 812.004 515.334 806.516C515.329 806.467 515.323 806.419 515.317 806.371C513.669 806.603 512.017 806.824 510.361 807.033C508.709 807.242 507.054 807.439 505.396 807.623C492.791 809.029 479.98 809.75 467 809.75C454.02 809.75 441.209 809.029 428.604 807.623C426.946 807.439 425.291 807.242 423.639 807.033C421.983 806.824 420.331 806.603 418.683 806.371ZM153.907 606.674C153.863 606.695 153.819 606.716 153.775 606.737C148.8 609.137 146.713 615.115 149.113 620.089C172.241 668.029 205.888 709.928 247.053 742.799C251.369 746.245 257.661 745.54 261.107 741.224C261.138 741.186 261.168 741.148 261.197 741.11C259.865 740.108 258.54 739.097 257.223 738.076C255.905 737.055 254.595 736.024 253.293 734.985C213.286 703.038 180.59 662.32 158.12 615.744C157.396 614.243 156.683 612.737 155.98 611.224C155.279 609.714 154.587 608.197 153.907 606.674ZM127.629 418.683C127.581 418.677 127.533 418.671 127.484 418.666C121.996 418.054 117.05 422.008 116.438 427.496C114.992 440.468 114.25 453.649 114.25 467C114.25 480.351 114.992 493.532 116.438 506.504C117.05 511.992 121.996 515.946 127.484 515.334C127.533 515.329 127.581 515.323 127.629 515.317C127.397 513.669 127.176 512.017 126.967 510.361C126.758 508.709 126.561 507.054 126.377 505.396C124.971 492.791 124.25 479.98 124.25 467C124.25 454.02 124.971 441.209 126.377 428.604C126.561 426.946 126.758 425.291 126.967 423.639C127.176 421.983 127.397 420.331 127.629 418.683ZM327.326 153.907C327.305 153.863 327.284 153.819 327.263 153.775C324.863 148.8 318.885 146.713 313.911 149.113C265.971 172.241 224.072 205.888 191.201 247.053C187.755 251.369 188.46 257.661 192.776 261.107C192.814 261.138 192.852 261.168 192.89 261.197C193.892 259.865 194.903 258.54 195.924 257.223C196.945 255.905 197.976 254.595 199.015 253.293C230.962 213.286 271.68 180.59 318.256 158.12C319.757 157.396 321.263 156.683 322.776 155.98C324.286 155.279 325.803 154.587 327.326 153.907ZM515.317 127.629C515.323 127.581 515.329 127.533 515.334 127.484C515.946 121.996 511.992 117.05 506.504 116.438C493.532 114.992 480.351 114.25 467 114.25C453.649 114.25 440.468 114.992 427.496 116.438C422.008 117.05 418.054 121.996 418.666 127.484C418.671 127.533 418.677 127.581 418.683 127.629C420.331 127.397 421.983 127.176 423.639 126.967C425.291 126.758 426.946 126.561 428.604 126.377C441.209 124.971 454.02 124.25 467 124.25C479.98 124.25 492.791 124.971 505.396 126.377C507.054 126.561 508.709 126.758 510.361 126.967C512.017 127.176 513.669 127.397 515.317 127.629ZM780.093 327.326C780.137 327.305 780.181 327.284 780.225 327.263C785.2 324.863 787.287 318.885 784.887 313.911C761.759 265.971 728.112 224.072 686.947 191.201C682.631 187.755 676.339 188.46 672.893 192.776C672.862 192.814 672.832 192.852 672.803 192.89C674.135 193.892 675.46 194.903 676.777 195.924C678.095 196.945 679.405 197.976 680.707 199.015C720.714 230.962 753.41 271.68 775.88 318.256C776.604 319.757 777.317 321.263 778.02 322.776C778.721 324.286 779.413 325.803 780.093 327.326Z" fill="white"/>
<path fill-rule="evenodd" clip-rule="evenodd" d="M920.584 523.16C920.786 521.508 920.98 519.852 921.165 518.194C923.038 501.388 924 484.306 924 467C924 449.694 923.038 432.612 921.165 415.806C920.98 414.148 920.786 412.492 920.584 410.839C920.381 409.184 920.169 407.53 919.948 405.88C919.984 405.875 920.021 405.871 920.057 405.867C925.546 405.255 930.491 409.209 931.103 414.698C933.017 431.871 934 449.323 934 467C934 484.677 933.017 502.129 931.103 519.302C930.491 524.791 925.546 528.745 920.057 528.133C920.021 528.129 919.984 528.125 919.948 528.12C920.169 526.47 920.381 524.816 920.584 523.16ZM656.271 883.086C656.286 883.119 656.302 883.152 656.318 883.185C658.718 888.16 664.696 890.247 669.67 887.847C733.135 857.229 788.607 812.684 832.127 758.182C835.573 753.867 834.868 747.574 830.553 744.128C830.524 744.106 830.496 744.083 830.467 744.061C829.456 745.386 828.437 746.705 827.411 748.019C826.385 749.332 825.353 750.64 824.313 751.943C781.718 805.286 727.427 848.88 665.325 878.84C663.824 879.564 662.319 880.28 660.81 880.988C659.301 881.695 657.788 882.395 656.271 883.086ZM405.88 919.948C405.875 919.984 405.871 920.021 405.867 920.057C405.255 925.546 409.209 930.491 414.698 931.103C431.871 933.017 449.323 934 467 934C484.677 934 502.129 933.017 519.302 931.103C524.791 930.491 528.745 925.546 528.133 920.057C528.129 920.021 528.125 919.984 528.12 919.948C526.47 920.169 524.816 920.381 523.16 920.584C521.508 920.786 519.852 920.98 518.194 921.165C501.388 923.038 484.306 924 467 924C449.694 924 432.612 923.038 415.806 921.165C414.148 920.98 412.492 920.786 410.84 920.584C409.184 920.381 407.53 920.169 405.88 919.948ZM50.9139 656.271C50.8808 656.286 50.8477 656.302 50.8147 656.318C45.8404 658.718 43.7534 664.696 46.1532 669.67C76.7714 733.135 121.316 788.607 175.817 832.127C180.133 835.573 186.426 834.868 189.872 830.553C189.894 830.524 189.917 830.496 189.939 830.467C188.614 829.456 187.295 828.437 185.981 827.411C184.668 826.385 183.36 825.353 182.057 824.313C128.714 781.718 85.1205 727.427 55.1598 665.325C54.4359 663.824 53.72 662.319 53.012 660.81C52.3046 659.301 51.6052 657.788 50.9139 656.271ZM14.0517 405.88C14.0156 405.875 13.9795 405.871 13.9432 405.867C8.4544 405.255 3.50881 409.209 2.89696 414.698C0.982618 431.871 0 449.323 0 467C0 484.677 0.982619 502.129 2.89696 519.302C3.50881 524.791 8.4544 528.745 13.9433 528.133C13.9795 528.129 14.0156 528.125 14.0517 528.12C13.8312 526.47 13.6194 524.816 13.4164 523.16C13.2139 521.508 13.0202 519.852 12.8354 518.194C10.962 501.388 10 484.306 10 467C10 449.694 10.962 432.612 12.8354 415.806C13.0202 414.148 13.2139 412.492 13.4164 410.84C13.6194 409.184 13.8312 407.53 14.0517 405.88ZM277.729 50.9139C277.714 50.8808 277.698 50.8477 277.682 50.8147C275.282 45.8404 269.304 43.7534 264.33 46.1532C200.865 76.7714 145.393 121.316 101.873 175.817C98.4267 180.133 99.1317 186.426 103.447 189.872C103.476 189.894 103.504 189.917 103.533 189.939C104.544 188.614 105.563 187.295 106.589 185.981C107.615 184.668 108.647 183.36 109.687 182.057C152.282 128.714 206.573 85.1206 268.675 55.1598C270.176 54.4359 271.681 53.72 273.19 53.012C274.699 52.3046 276.212 51.6052 277.729 50.9139ZM528.12 14.0517C528.125 14.0156 528.129 13.9795 528.133 13.9432C528.745 8.4544 524.791 3.50881 519.302 2.89696C502.129 0.982618 484.677 0 467 0C449.323 0 431.871 0.982619 414.698 2.89696C409.209 3.50881 405.255 8.4544 405.867 13.9433C405.871 13.9795 405.875 14.0156 405.88 14.0517C407.53 13.8312 409.184 13.6194 410.839 13.4165C412.492 13.2139 414.148 13.0202 415.806 12.8354C432.612 10.962 449.694 10 467 10C484.306 10 501.388 10.962 518.194 12.8354C519.852 13.0202 521.508 13.2139 523.16 13.4164C524.816 13.6194 526.47 13.8312 528.12 14.0517ZM883.086 277.729C883.119 277.714 883.152 277.698 883.185 277.682C888.16 275.282 890.247 269.304 887.847 264.33C857.229 200.865 812.684 145.393 758.182 101.873C753.867 98.4267 747.574 99.1317 744.128 103.447C744.106 103.476 744.083 103.504 744.061 103.533C745.386 104.544 746.705 105.563 748.019 106.589C749.332 107.615 750.64 108.647 751.943 109.687C805.286 152.282 848.879 206.573 878.84 268.675C879.564 270.176 880.28 271.681 880.988 273.19C881.695 274.699 882.395 276.212 883.086 277.729Z" fill="#5B9DFF"/>
</svg>
