<svg width="7" height="8" viewBox="0 0 7 8" fill="none" xmlns="http://www.w3.org/2000/svg">
<path d="M2.98026 1.03596C3.14185 0.517188 3.84545 0.517188 4.00704 1.03596L4.46321 2.50043C4.53548 2.73243 4.74275 2.88951 4.97661 2.88951H6.45281C6.97573 2.88951 7.19316 3.58752 6.7701 3.90814L5.57583 4.81323C5.38663 4.95661 5.30746 5.21077 5.37973 5.44277L5.8359 6.90724C5.9975 7.42602 5.42827 7.85741 5.00522 7.53679L3.81095 6.6317C3.62175 6.48831 3.36556 6.48831 3.17636 6.6317L1.98209 7.53679C1.55903 7.85741 0.989809 7.42602 1.1514 6.90724L1.60757 5.44277C1.67984 5.21077 1.60067 4.95661 1.41148 4.81323L0.217206 3.90814C-0.205852 3.58752 0.0115703 2.88951 0.534499 2.88951H2.0107C2.24456 2.88951 2.45182 2.73243 2.52409 2.50043L2.98026 1.03596Z" fill="#F1BB2E"/>
</svg>
